<svg xmlns="http://www.w3.org/2000/svg" xmlns:xlink="http://www.w3.org/1999/xlink" width="500" zoomAndPan="magnify" viewBox="0 0 375 374.999991" height="500" preserveAspectRatio="xMidYMid meet" version="1.0"><defs><g/><clipPath id="id1"><path d="M 98.085938 103.050781 L 260.085938 103.050781 L 260.085938 265.050781 L 98.085938 265.050781 Z M 98.085938 103.050781 " clip-rule="nonzero"/></clipPath></defs><g clip-path="url(#id1)"><path fill="rgb(0%, 0%, 0%)" d="M 132.898438 103.050781 L 260.085938 103.050781 L 260.085938 265.054688 L 98.085938 265.054688 L 98.085938 240.582031 C 98.507812 241.121094 98.933594 241.65625 99.363281 242.191406 L 99.363281 263.773438 L 258.804688 263.773438 L 258.804688 104.328125 L 132.15625 104.328125 C 132.402344 103.917969 132.636719 103.507812 132.875 103.089844 Z M 132.898438 103.050781 " fill-opacity="1" fill-rule="evenodd"/></g><g fill="rgb(0%, 0%, 0%)" fill-opacity="1"><g transform="translate(117.855846, 204.428285)"><g><path d="M 3.335938 -8.695312 C 5.003906 -1.964844 13.933594 0 19.589844 0 C 29.476562 0 38.347656 -3.929688 38.347656 -20.84375 L 38.347656 -77.589844 C 38.347656 -83.011719 38.945312 -83.902344 40.613281 -85.390625 L 28.644531 -85.390625 C 28.644531 -85.390625 31.144531 -84.558594 31.144531 -77.472656 C 31.144531 -77.472656 31.144531 -93.667969 31.144531 -19.414062 C 31.144531 -3.097656 26.4375 -1.785156 19.414062 -1.785156 C 14.53125 -1.785156 9.945312 -4.527344 9.945312 -11.492188 C 9.945312 -16.496094 1.488281 -16.136719 3.335938 -8.695312 Z M 3.335938 -8.695312 "/></g></g></g><g fill="rgb(0%, 0%, 0%)" fill-opacity="1"><g transform="translate(175.43372, 204.428285)"><g><path d="M 7.144531 -11.492188 C 4.050781 -11.492188 1.488281 -8.992188 1.488281 -5.894531 C 1.488281 -2.796875 4.050781 -0.296875 7.144531 -0.296875 C 10.242188 -0.296875 12.742188 -2.796875 12.742188 -5.894531 C 12.742188 -8.992188 10.242188 -11.492188 7.144531 -11.492188 Z M 7.144531 -11.492188 "/></g></g></g><g fill="rgb(0%, 0%, 0%)" fill-opacity="1"><g transform="translate(205.146971, 204.428285)"><g><path d="M 1.488281 -0.0585938 L 13.695312 -0.0585938 C 13.695312 -0.0585938 11.253906 -1.25 11.253906 -8.335938 L 11.253906 -77.53125 C 11.253906 -84.617188 13.695312 -85.390625 13.695312 -85.390625 L 1.488281 -85.390625 C 1.488281 -85.390625 3.988281 -84.558594 3.988281 -77.472656 L 3.988281 -8.335938 C 3.988281 -1.25 1.488281 -0.0585938 1.488281 -0.0585938 Z M 1.488281 -0.0585938 "/></g></g></g><g fill="rgb(0%, 0%, 0%)" fill-opacity="1"><g transform="translate(89.688683, 246.542636)"><g/></g></g><g fill="rgb(0%, 0%, 0%)" fill-opacity="1"><g transform="translate(107.964873, 246.542636)"><g/></g></g><g fill="rgb(0%, 0%, 0%)" fill-opacity="1"><g transform="translate(126.241064, 246.542636)"><g/></g></g><g fill="rgb(0%, 0%, 0%)" fill-opacity="1"><g transform="translate(144.517255, 246.542636)"><g/></g></g><g fill="rgb(0%, 0%, 0%)" fill-opacity="1"><g transform="translate(162.79024, 246.542636)"><g><path d="M -2.097656 -11.128906 C -5.796875 -8.144531 -8.605469 -5.121094 -10.5625 -2.097656 C -12.515625 0.960938 -13.617188 3.484375 -13.867188 5.476562 C -13.902344 5.867188 -13.9375 6.257812 -13.902344 6.71875 C -13.867188 7.183594 -13.761719 7.609375 -13.511719 7.929688 C -13.261719 8.285156 -12.871094 8.464844 -12.339844 8.464844 C -11.449219 8.464844 -10.667969 8.179688 -9.921875 7.574219 C -8.320312 6.1875 -6.863281 3.839844 -5.617188 0.460938 C -4.375 -2.914062 -3.199219 -6.757812 -2.097656 -11.128906 Z M -12.660156 9.742188 C -14.542969 9.742188 -15.398438 8.390625 -15.148438 5.652344 C -14.898438 3.34375 -13.617188 0.460938 -11.378906 -2.988281 C -9.140625 -6.402344 -5.902344 -9.707031 -1.636719 -12.945312 C -1.421875 -13.726562 -1.210938 -14.507812 -1.03125 -15.289062 C -0.570312 -17.105469 -0.0703125 -18.953125 0.425781 -20.800781 C 0.460938 -20.980469 0.570312 -21.15625 0.746094 -21.265625 C 0.890625 -21.371094 1.066406 -21.441406 1.246094 -21.441406 C 1.421875 -21.441406 1.527344 -21.371094 1.636719 -21.265625 C 1.707031 -21.15625 1.707031 -20.980469 1.671875 -20.800781 C 1.210938 -18.953125 0.710938 -17.105469 0.25 -15.289062 L 0.105469 -14.792969 C 0.0351562 -14.542969 -0.0351562 -14.292969 -0.0703125 -14.046875 C 3.769531 -16.675781 8.390625 -18.738281 13.761719 -20.234375 C 13.9375 -20.269531 14.117188 -20.269531 14.222656 -20.199219 C 14.332031 -20.089844 14.402344 -19.984375 14.4375 -19.804688 C 14.4375 -19.628906 14.367188 -19.488281 14.257812 -19.34375 C 14.117188 -19.167969 13.976562 -19.058594 13.796875 -19.023438 C 8.144531 -17.425781 3.378906 -15.183594 -0.535156 -12.304688 C -1.777344 -7.433594 -3.058594 -3.128906 -4.410156 0.535156 C -5.761719 4.230469 -7.359375 6.863281 -9.246094 8.464844 C -10.347656 9.316406 -11.484375 9.742188 -12.660156 9.742188 Z M 2.773438 -23.433594 C 2.703125 -23.21875 2.558594 -23.042969 2.347656 -22.898438 C 2.097656 -22.722656 1.882812 -22.652344 1.636719 -22.652344 C 1.386719 -22.652344 1.171875 -22.722656 1.066406 -22.898438 C 0.925781 -23.042969 0.890625 -23.21875 0.925781 -23.433594 C 0.996094 -23.683594 1.136719 -23.859375 1.351562 -24.039062 C 1.566406 -24.179688 1.8125 -24.25 2.0625 -24.25 C 2.3125 -24.25 2.523438 -24.179688 2.667969 -24.039062 C 2.773438 -23.859375 2.808594 -23.683594 2.773438 -23.433594 Z M 2.773438 -23.433594 "/></g></g></g><g fill="rgb(0%, 0%, 0%)" fill-opacity="1"><g transform="translate(176.159594, 246.542636)"><g><path d="M 1.707031 -19.34375 C 3.664062 -19.09375 5.015625 -19.238281 5.6875 -19.734375 C 5.796875 -19.804688 5.867188 -19.878906 5.902344 -19.914062 C 5.9375 -19.949219 5.9375 -19.949219 5.9375 -19.984375 C 5.9375 -20.019531 5.867188 -20.089844 5.726562 -20.160156 C 5.582031 -20.234375 5.332031 -20.269531 4.976562 -20.269531 C 4.230469 -20.269531 3.589844 -20.199219 3.058594 -20.019531 C 2.523438 -19.84375 2.0625 -19.59375 1.707031 -19.34375 Z M 3.984375 -14.578125 L 3.554688 -14.578125 C 0.25 -14.6875 -1.171875 -15.789062 -0.640625 -17.957031 C -0.535156 -18.457031 -0.214844 -18.988281 0.25 -19.523438 C 0.710938 -20.054688 1.386719 -20.554688 2.238281 -20.945312 C 3.058594 -21.335938 4.089844 -21.511719 5.296875 -21.511719 C 6.402344 -21.511719 7.039062 -21.191406 7.21875 -20.519531 C 7.324219 -20.054688 7.148438 -19.59375 6.683594 -19.128906 C 6.222656 -18.667969 5.511719 -18.347656 4.515625 -18.136719 C 3.484375 -17.886719 2.203125 -17.921875 0.675781 -18.171875 L 0.605469 -17.957031 C 0.425781 -17.140625 0.710938 -16.570312 1.457031 -16.285156 C 2.167969 -15.964844 2.988281 -15.824219 3.910156 -15.824219 C 8.109375 -15.679688 12.871094 -17.03125 18.171875 -19.84375 C 18.347656 -19.949219 18.492188 -19.949219 18.667969 -19.914062 C 18.8125 -19.878906 18.917969 -19.769531 18.953125 -19.628906 C 18.988281 -19.449219 18.988281 -19.308594 18.917969 -19.167969 C 18.8125 -18.988281 18.703125 -18.882812 18.527344 -18.773438 C 13.371094 -15.964844 8.5 -14.578125 3.984375 -14.578125 Z M 3.984375 -14.578125 "/></g></g></g><g fill="rgb(0%, 0%, 0%)" fill-opacity="1"><g transform="translate(194.04466, 246.542636)"><g><path d="M -0.179688 -14.152344 C -0.890625 -11.273438 -1.386719 -8.710938 -1.671875 -6.507812 C -1.992188 -4.265625 -1.882812 -2.773438 -1.351562 -1.957031 C -1.171875 -1.707031 -0.960938 -1.566406 -0.675781 -1.566406 C -0.570312 -1.566406 -0.390625 -1.601562 -0.214844 -1.707031 C -0.0351562 -1.777344 0.140625 -1.957031 0.390625 -2.203125 C 1.136719 -3.234375 1.636719 -4.765625 1.882812 -6.71875 C 2.132812 -8.675781 1.921875 -10.453125 1.316406 -12.125 C 1.066406 -12.90625 0.570312 -13.582031 -0.179688 -14.152344 Z M -0.996094 -0.320312 C -1.636719 -0.320312 -2.132812 -0.570312 -2.488281 -1.066406 C -3.128906 -2.027344 -3.308594 -3.734375 -2.988281 -6.117188 C -2.703125 -8.5 -2.167969 -11.238281 -1.386719 -14.402344 C -1.707031 -14.472656 -2.0625 -14.542969 -2.417969 -14.613281 C -2.558594 -14.648438 -2.667969 -14.757812 -2.703125 -14.863281 C -2.738281 -14.96875 -2.738281 -15.113281 -2.703125 -15.289062 C -2.667969 -15.433594 -2.558594 -15.574219 -2.417969 -15.679688 C -2.3125 -15.789062 -2.167969 -15.824219 -1.992188 -15.859375 C -1.636719 -15.894531 -1.316406 -15.894531 -0.996094 -15.859375 C -0.460938 -17.992188 0.140625 -20.160156 0.746094 -22.367188 C 1.03125 -23.46875 1.316406 -24.5 1.601562 -25.53125 C 1.636719 -25.710938 1.742188 -25.851562 1.921875 -25.957031 C 2.0625 -26.066406 2.203125 -26.136719 2.382812 -26.136719 C 2.558594 -26.136719 2.667969 -26.066406 2.773438 -25.957031 C 2.878906 -25.851562 2.878906 -25.710938 2.84375 -25.53125 C 2.558594 -24.5 2.277344 -23.46875 1.992188 -22.367188 C 1.386719 -20.125 0.78125 -17.851562 0.179688 -15.539062 C 0.214844 -15.503906 0.285156 -15.503906 0.320312 -15.503906 C 4.195312 -15.148438 8.355469 -16.605469 12.800781 -19.84375 C 12.980469 -19.949219 13.121094 -20.019531 13.300781 -20.019531 C 13.476562 -19.984375 13.582031 -19.914062 13.691406 -19.804688 C 13.761719 -19.664062 13.761719 -19.523438 13.726562 -19.34375 C 13.691406 -19.167969 13.582031 -19.023438 13.40625 -18.917969 C 9.316406 -15.929688 5.476562 -14.367188 1.8125 -14.1875 C 2.097656 -13.796875 2.347656 -13.371094 2.558594 -12.835938 C 3.199219 -11.058594 3.414062 -9.066406 3.164062 -6.898438 C 2.914062 -4.730469 2.3125 -2.953125 1.316406 -1.636719 C 0.605469 -0.746094 -0.179688 -0.320312 -0.996094 -0.320312 Z M -0.996094 -0.320312 "/></g></g></g><g fill="rgb(0%, 0%, 0%)" fill-opacity="1"><g transform="translate(206.631763, 246.542636)"><g><path d="M -0.179688 -14.152344 C -0.890625 -11.273438 -1.386719 -8.710938 -1.671875 -6.507812 C -1.992188 -4.265625 -1.882812 -2.773438 -1.351562 -1.957031 C -1.171875 -1.707031 -0.960938 -1.566406 -0.675781 -1.566406 C -0.570312 -1.566406 -0.390625 -1.601562 -0.214844 -1.707031 C -0.0351562 -1.777344 0.140625 -1.957031 0.390625 -2.203125 C 1.136719 -3.234375 1.636719 -4.765625 1.882812 -6.71875 C 2.132812 -8.675781 1.921875 -10.453125 1.316406 -12.125 C 1.066406 -12.90625 0.570312 -13.582031 -0.179688 -14.152344 Z M -0.996094 -0.320312 C -1.636719 -0.320312 -2.132812 -0.570312 -2.488281 -1.066406 C -3.128906 -2.027344 -3.308594 -3.734375 -2.988281 -6.117188 C -2.703125 -8.5 -2.167969 -11.238281 -1.386719 -14.402344 C -1.707031 -14.472656 -2.0625 -14.542969 -2.417969 -14.613281 C -2.558594 -14.648438 -2.667969 -14.757812 -2.703125 -14.863281 C -2.738281 -14.96875 -2.738281 -15.113281 -2.703125 -15.289062 C -2.667969 -15.433594 -2.558594 -15.574219 -2.417969 -15.679688 C -2.3125 -15.789062 -2.167969 -15.824219 -1.992188 -15.859375 C -1.636719 -15.894531 -1.316406 -15.894531 -0.996094 -15.859375 C -0.460938 -17.992188 0.140625 -20.160156 0.746094 -22.367188 C 1.03125 -23.46875 1.316406 -24.5 1.601562 -25.53125 C 1.636719 -25.710938 1.742188 -25.851562 1.921875 -25.957031 C 2.0625 -26.066406 2.203125 -26.136719 2.382812 -26.136719 C 2.558594 -26.136719 2.667969 -26.066406 2.773438 -25.957031 C 2.878906 -25.851562 2.878906 -25.710938 2.84375 -25.53125 C 2.558594 -24.5 2.277344 -23.46875 1.992188 -22.367188 C 1.386719 -20.125 0.78125 -17.851562 0.179688 -15.539062 C 0.214844 -15.503906 0.285156 -15.503906 0.320312 -15.503906 C 4.195312 -15.148438 8.355469 -16.605469 12.800781 -19.84375 C 12.980469 -19.949219 13.121094 -20.019531 13.300781 -20.019531 C 13.476562 -19.984375 13.582031 -19.914062 13.691406 -19.804688 C 13.761719 -19.664062 13.761719 -19.523438 13.726562 -19.34375 C 13.691406 -19.167969 13.582031 -19.023438 13.40625 -18.917969 C 9.316406 -15.929688 5.476562 -14.367188 1.8125 -14.1875 C 2.097656 -13.796875 2.347656 -13.371094 2.558594 -12.835938 C 3.199219 -11.058594 3.414062 -9.066406 3.164062 -6.898438 C 2.914062 -4.730469 2.3125 -2.953125 1.316406 -1.636719 C 0.605469 -0.746094 -0.179688 -0.320312 -0.996094 -0.320312 Z M -0.996094 -0.320312 "/></g></g></g></svg>